<?xml version="1.0" standalone="no"?>
<!DOCTYPE svg PUBLIC "-//W3C//DTD SVG 20010904//EN"
 "http://www.w3.org/TR/2001/REC-SVG-20010904/DTD/svg10.dtd">
<svg version="1.0" xmlns="http://www.w3.org/2000/svg"
 width="512.000000pt" height="512.000000pt" viewBox="0 0 512.000000 512.000000"
 preserveAspectRatio="xMidYMid meet">
<metadata>
Created by potrace 1.14, written by Peter Selinger 2001-2017
</metadata>
<g transform="translate(0.000000,512.000000) scale(0.100000,-0.100000)"
fill="#000000" stroke="none">
<path d="M1185 4060 c-4 -6 0 -88 9 -183 8 -94 22 -262 31 -372 29 -376 36
-470 52 -635 8 -91 16 -203 17 -250 2 -80 3 -85 27 -91 31 -9 2426 -11 2469
-3 29 6 31 9 27 38 -3 17 3 130 13 251 10 121 23 285 29 365 6 80 17 244 26
365 9 121 20 256 25 300 6 44 10 97 10 118 0 21 5 47 11 58 7 15 7 24 -2 35
-15 18 -29 18 -29 -2 0 -8 -3 -13 -7 -11 -5 3 -608 6 -1340 8 -733 2 -1333 7
-1333 12 0 11 -28 9 -35 -3z"/>
<path d="M1360 2487 c-30 -15 -52 -99 -31 -120 10 -10 140 -15 271 -10 14 1
59 1 100 1 41 -1 86 -1 100 0 14 0 59 0 100 0 41 -1 86 -1 100 0 14 0 59 0
100 0 41 -1 86 -1 100 0 14 0 57 0 95 0 39 -1 84 -1 100 -1 26 1 112 1 205 1
17 0 60 0 98 -1 37 0 78 0 92 1 14 0 60 0 103 0 42 0 91 0 107 0 17 0 62 0
100 0 39 0 84 0 100 0 17 0 60 0 98 -1 37 0 78 0 92 1 14 0 59 0 100 0 41 -1
86 0 100 0 14 1 60 1 104 1 43 0 83 4 89 10 7 7 7 26 1 58 -7 36 -15 51 -34
60 -35 18 -111 16 -138 -3 -20 -14 -24 -14 -44 0 -30 21 -126 21 -156 0 -20
-14 -24 -14 -44 0 -28 20 -127 21 -153 2 -15 -11 -22 -11 -44 0 -33 18 -119
18 -152 0 -22 -11 -29 -11 -44 0 -26 19 -125 18 -153 -2 -20 -14 -24 -14 -44
0 -30 21 -126 21 -156 1 -19 -14 -24 -14 -47 1 -20 13 -38 15 -88 10 -71 -8
-80 -8 -165 0 -48 4 -68 2 -88 -10 -22 -15 -27 -15 -46 -1 -28 19 -127 20
-153 1 -15 -11 -22 -11 -44 0 -33 18 -119 18 -152 0 -22 -11 -29 -11 -44 0
-26 19 -125 18 -153 -2 -20 -14 -24 -14 -44 0 -28 20 -200 22 -238 3z"/>
<path d="M1458 2312 c-152 -3 -149 -1 -162 -74 -5 -27 -2 -40 10 -53 15 -14
36 -16 168 -11 83 2 159 5 169 4 9 0 53 0 97 0 100 1 112 1 205 1 41 0 85 0
98 0 12 0 53 -2 90 -5 44 -4 79 -1 98 6 23 10 32 10 44 0 9 -8 38 -10 87 -6
40 3 81 5 91 5 9 -1 53 -1 97 -1 100 1 112 1 205 1 41 0 86 0 100 0 14 0 61 0
105 0 44 0 91 0 105 0 14 0 59 0 100 0 41 0 85 0 98 0 12 0 53 -2 91 -5 45 -4
77 -2 91 6 17 9 28 9 43 1 12 -7 78 -11 161 -11 162 0 178 7 166 69 -13 69
-16 71 -118 72 -153 2 -201 -2 -220 -19 -16 -14 -19 -14 -31 4 -12 16 -25 19
-88 16 -55 -2 -76 -7 -86 -20 -12 -16 -14 -16 -28 3 -13 17 -25 20 -87 17 -53
-2 -75 -7 -84 -19 -12 -15 -14 -15 -34 3 -17 15 -33 18 -87 15 -38 -1 -74 -8
-82 -16 -13 -11 -18 -11 -37 5 -19 15 -34 17 -85 13 -35 -3 -71 -12 -80 -20
-14 -13 -19 -12 -37 6 -17 17 -29 19 -78 15 -32 -3 -68 -10 -80 -16 -17 -8
-26 -8 -39 3 -22 18 -143 13 -165 -7 -13 -12 -17 -11 -32 3 -23 23 -143 20
-170 -4 -16 -15 -18 -15 -31 3 -12 16 -25 18 -83 16 -45 -2 -74 -9 -86 -19
-16 -15 -18 -15 -31 2 -18 25 -154 23 -174 -3 -12 -15 -14 -15 -25 -1 -18 23
-30 24 -179 21z"/>
<path d="M1286 2118 c-23 -33 -21 -105 3 -118 12 -6 95 -10 201 -10 145 0 187
3 211 16 28 14 32 14 48 0 24 -22 128 -22 159 0 20 14 24 14 44 0 14 -10 44
-16 83 -16 39 0 69 6 83 16 20 14 24 14 44 0 14 -10 44 -16 83 -16 39 0 69 6
83 16 20 14 24 14 44 0 27 -19 129 -22 157 -4 15 9 25 9 46 0 38 -17 136 -15
163 4 20 14 24 14 44 0 30 -21 136 -21 166 0 20 14 24 14 44 0 30 -21 136 -21
166 0 20 14 24 14 44 0 30 -21 126 -21 156 -1 19 14 24 14 51 0 25 -12 65 -15
208 -14 97 1 188 5 200 10 19 7 23 16 23 52 0 23 -7 53 -16 65 -15 21 -20 22
-214 22 -194 0 -199 -1 -214 -22 l-16 -22 -20 22 c-18 19 -32 22 -90 22 -60 0
-71 -3 -84 -22 l-16 -22 -16 22 c-13 19 -24 22 -84 22 -56 0 -73 -4 -88 -20
l-19 -20 -18 20 c-15 16 -31 20 -86 20 -59 0 -70 -3 -83 -22 l-16 -22 -16 22
c-13 19 -24 22 -82 22 -45 0 -75 -5 -90 -16 -20 -14 -24 -14 -38 0 -11 12 -35
16 -84 16 -60 0 -71 -3 -84 -22 l-16 -22 -16 22 c-13 19 -24 22 -83 22 -55 0
-71 -4 -86 -20 l-18 -20 -22 20 c-32 30 -147 29 -169 -1 l-14 -21 -21 21 c-17
17 -33 21 -86 21 -53 0 -69 -4 -86 -21 l-21 -21 -14 21 c-15 20 -24 21 -214
21 -194 0 -199 -1 -214 -22z"/>
<path d="M1265 1956 c-14 -10 -18 -27 -19 -82 l-1 -69 75 -3 c44 -2 84 2 97 9
17 9 26 9 37 0 10 -9 40 -11 98 -7 46 3 90 5 98 5 8 0 52 -2 98 -5 55 -4 88
-2 97 6 10 8 19 8 34 1 28 -15 1324 -15 1353 0 14 8 23 8 31 0 15 -15 160 -14
175 1 9 9 17 9 35 -1 16 -9 49 -11 103 -7 43 3 86 5 94 5 8 0 56 -1 105 -2
l90 -2 3 34 c5 48 -6 97 -24 116 -25 24 -138 21 -164 -5 l-21 -21 -26 21 c-37
29 -134 29 -164 -1 l-21 -21 -22 21 c-30 28 -133 30 -166 3 -23 -18 -24 -18
-42 0 -17 17 -50 18 -661 18 -565 0 -645 -2 -665 -16 -20 -14 -24 -14 -44 0
-35 25 -136 21 -164 -5 l-22 -21 -21 21 c-30 30 -127 30 -165 0 l-27 -21 -20
21 c-16 17 -31 21 -82 21 -37 0 -71 -6 -82 -14z"/>
<path d="M2868 1083 c6 -2 18 -2 25 0 6 3 1 5 -13 5 -14 0 -19 -2 -12 -5z"/>
<path d="M4046 1081 c-4 -7 -5 -15 -2 -18 9 -9 19 4 14 18 -4 11 -6 11 -12 0z"/>
<path d="M2099 1061 l-24 -20 27 -1 c29 0 46 16 31 31 -6 6 -19 2 -34 -10z"/>
</g>
</svg>
