<?xml version="1.0" standalone="no"?>
<!DOCTYPE svg PUBLIC "-//W3C//DTD SVG 20010904//EN"
 "http://www.w3.org/TR/2001/REC-SVG-20010904/DTD/svg10.dtd">
<svg version="1.0" xmlns="http://www.w3.org/2000/svg"
 width="667.000000pt" height="667.000000pt" viewBox="0 0 667.000000 667.000000"
 preserveAspectRatio="xMidYMid meet">
<metadata>
Created by potrace 1.14, written by Peter Selinger 2001-2017
</metadata>
<g transform="translate(0.000000,667.000000) scale(0.100000,-0.100000)"
fill="#000000" stroke="none">
<path d="M3148 6665 c-2 -1 -43 -5 -93 -9 -106 -7 -374 -46 -427 -62 -10 -3
-30 -7 -45 -10 -75 -12 -435 -128 -533 -171 -423 -184 -754 -406 -1055 -708
-174 -174 -251 -263 -371 -430 -76 -106 -224 -343 -224 -360 0 -3 -10 -22 -23
-43 -28 -46 -114 -237 -161 -357 -80 -207 -162 -529 -182 -712 -3 -30 -7 -64
-10 -76 -25 -128 -24 -624 1 -790 2 -12 6 -44 10 -72 13 -99 17 -122 41 -235
29 -136 49 -208 111 -390 47 -141 53 -154 125 -310 214 -464 553 -894 954
-1211 313 -248 657 -433 1033 -556 111 -36 311 -89 377 -98 21 -4 55 -10 74
-15 19 -5 58 -11 85 -15 28 -3 66 -8 85 -10 117 -16 189 -19 395 -20 295 0
409 10 679 60 468 88 996 333 1392 646 157 124 346 304 464 444 23 28 52 61
64 75 284 337 521 809 641 1275 32 126 40 162 51 234 2 19 6 37 9 40 2 4 6 31
10 61 3 30 8 69 10 85 26 188 26 737 0 818 -2 7 -6 37 -10 67 -11 102 -55 304
-110 500 -10 37 -76 221 -98 275 -48 115 -59 141 -114 250 -95 189 -229 401
-348 550 -30 39 -70 88 -88 110 -56 71 -340 350 -417 411 -41 32 -77 61 -80
64 -27 30 -302 212 -410 272 -264 147 -612 284 -840 332 -169 36 -280 57 -323
62 -29 3 -68 7 -87 10 -97 12 -152 15 -347 18 -117 2 -214 2 -215 1z"/>
</g>
</svg>
